<?xml version="1.0" encoding="utf-8"?>
<!-- Generator: Adobe Illustrator 23.1.0, SVG Export Plug-In . SVG Version: 6.00 Build 0)  -->
<svg version="1.1" id="Layer_1" xmlns="http://www.w3.org/2000/svg" xmlns:xlink="http://www.w3.org/1999/xlink" x="0px" y="0px"
	 viewBox="0 0 243 394" style="enable-background:new 0 0 243 394;" xml:space="preserve">
<style type="text/css">
	.st0{fill:#E2E2E2;}
</style>
<g>
	<g>
		<path class="st0" d="M19.2,210.6c-2.6-4.2-4.4-8.6-4.5-13.6c0.3-4.6,1.8-8.9,4.5-12.7c4.7-4.8,9.3-9.6,14-14.3
			c4.6-4,8.9-8.3,12.9-12.9c5-4.4,9.7-9.1,14.1-14.1c4.6-4,8.9-8.3,12.9-12.9c5.3-4.7,10.4-9.7,15.1-15.1c4.6-4,8.9-8.3,12.9-12.9
			c5-4.4,9.7-9.1,14.1-14.1c4.6-4,8.9-8.3,12.9-12.9c5-4.4,9.7-9.1,14.2-14.1c4.5-4,8.9-8.3,12.8-12.9c5.4-4.7,10.4-9.8,15.2-15.1
			c4.6-4,8.9-8.3,12.9-12.8c5.5-5.4,11.2-10.1,19.7-9.4c2.5,0.2,4.8,1.1,7.2,1.5c11,7.7,20.1,17.3,28.2,27.7
			c4.9,6.2,3.6,13.8,0.6,20.8c-0.6,0.9-1.3,1.9-1.9,2.8c-8,8.1-16.1,16.1-24.1,24.2c-1,1-1.9,1.9-2.9,2.9c-8,8-16.1,16.1-24.1,24.1
			c-1,1-1.9,1.9-2.9,2.9c-8.6,8.1-17,16.4-25,25.1c-1,1-2,2-2.9,3c-8.3,7.7-16.3,15.7-24,24.1c-1.3,0.7-2.3,1.7-3,3
			c-8.2,7.7-16.3,15.5-23.8,24c7,8.9,15.6,16.4,23.7,24.3c1.2,1.3,2.5,2.5,3.7,3.8c7.7,7.8,15.5,15.5,23.2,23.3
			c1.2,1.2,2.5,2.5,3.7,3.7c7.7,8.7,15.9,16.8,24.5,24.7c0.4,1,1.1,1.7,2.1,2.2c7.8,8.8,16.3,16.9,24.8,25.1c1,1.6,2.3,3,4,4
			c7.6,7.7,15.3,15.5,22.9,23.2c0.6,0.9,1.2,1.8,1.8,2.8c4.1,8.2,2.6,16-1.9,23.5c-1.1,1.1-2.1,2.2-3.2,3.3
			c-5.7,4.4-10.2,9.9-15.4,14.8c-2.6,2.5-5.3,5-8.5,6.8c-10.9,4.3-19.1-0.4-26.5-7.8c-3.8-4.7-8.1-9-12.8-12.8
			c-4.6-5.5-9.7-10.6-15.2-15.2c-3.8-4.7-8.1-9-12.8-12.8c-4.3-5.2-9-10-14.2-14.2c-3.8-4.7-8.1-9-12.8-12.8
			c-4.7-4.7-9.5-9.5-14.2-14.2c-4.1-5.1-8.7-9.7-13.8-13.8c-4.7-4.7-9.5-9.5-14.2-14.2c-3.8-4.7-8.1-9-12.8-12.8
			c-4.3-5.2-9-10-14.2-14.2c-3.8-4.7-8.1-9-12.8-12.8C28.6,220.1,23.9,215.4,19.2,210.6z"/>
	</g>
</g>
</svg>
