<?xml version="1.0" encoding="utf-8"?>
<!-- Generator: Adobe Illustrator 23.1.0, SVG Export Plug-In . SVG Version: 6.00 Build 0)  -->
<svg version="1.1" id="Layer_1" xmlns="http://www.w3.org/2000/svg" xmlns:xlink="http://www.w3.org/1999/xlink" x="0px" y="0px"
	 viewBox="0 0 32.1 42.8" style="enable-background:new 0 0 32.1 42.8;" xml:space="preserve">
<style type="text/css">
	.st0{fill:#FFFFFF;}
	.st1{fill:#FFFFFF;stroke:#FFFFFF;}
</style>
<g id="그룹_68" transform="translate(-0.324)">
	<path id="패스_6" class="st0" d="M13.2,0.4c0.5,0.1,1,0.2,1.5,0.3c0.9,0.3,2,0.3,2.9,0c0.4-0.1,0.8-0.2,1.2-0.3
		c1.1-0.2,2.2,0.3,2.9,1.1c0.8,1,2,1.7,3.2,1.9c1.4,0.2,2.5,1.4,2.7,2.8c0.2,1.2,0.8,2.3,1.8,3.1c1.1,0.9,1.5,2.4,1.1,3.7
		c-0.4,1.3-0.4,2.7,0,4c0.4,1.3,0.1,2.7-1,3.6c-1,0.8-1.6,2-1.8,3.2c-0.2,1.5-1.4,2.6-2.8,2.8c-1.1,0.2-2,0.8-2.8,1.5
		c-1.1,1.1-2.9,1.3-4.2,0.5c-0.8-0.5-1.9-0.6-2.8-0.3c-0.1,0-0.2,0.1-0.4,0.1c-1.5,1.1-3.5,0.8-4.7-0.6c-0.7-0.7-1.5-1.1-2.5-1.2
		c-1.2-0.2-2.2-1.1-2.6-2.2c-0.2-0.5-0.3-1-0.4-1.5c-0.2-0.7-0.5-1.2-1-1.7c-0.5-0.4-0.9-0.9-1.3-1.5c-0.5-0.8-0.6-1.8-0.3-2.7
		c0.2-0.8,0.3-1.6,0.3-2.4C2.1,14.2,2,13.6,1.8,13c-0.3-1.2,0.1-2.6,1-3.4C2.9,9.5,3,9.3,3.1,9.2c0.8-0.7,1.3-1.6,1.5-2.6
		C4.7,6,5,5.4,5.3,4.9c0.4-0.7,1.1-1.2,1.9-1.3c1.4-0.2,2.6-1,3.5-2c0.4-0.5,1.1-0.9,1.8-1C12.7,0.5,12.9,0.5,13.2,0.4L13.2,0.4z
		 M16.1,7c-4.3,0-7.7,3.5-7.7,7.7c0,0,0,0.1,0,0.1c-0.1,4.3,3.2,7.8,7.5,7.9c0,0,0.1,0,0.1,0c4.3,0.1,7.8-3.2,7.9-7.5
		c0-0.1,0-0.2,0-0.4c0.1-4.3-3.3-7.8-7.6-7.9C16.2,7,16.2,7,16.1,7L16.1,7z"/>
	<path id="패스_7" class="st0" d="M15.4,31.4c-0.4,1-0.8,2-1.2,2.9c-0.9,2.3-1.9,4.7-2.8,7c-0.4,0.9-0.8,1.3-1.4,1.2
		c-0.4-0.1-0.7-0.2-1-0.5c-0.9-0.9-1.7-1.8-2.6-2.7c-0.2-0.3-0.6-0.4-0.9-0.4C4.2,39,3,39.1,1.8,39.1c-0.7,0.1-1.4-0.4-1.5-1.1
		c0-0.3,0-0.6,0.2-0.9c1.2-2.9,2.4-5.8,3.5-8.7c0-0.1,0.1-0.1,0.1-0.2c0.7,0.3,1.3,0.6,1.9,0.9c0.3,0.1,0.7,0.2,1,0.3
		c0.5,0.1,0.9,0.4,1.3,0.7c1.7,1.8,4.3,2.2,6.6,1.2C15,31.4,15.2,31.4,15.4,31.4L15.4,31.4z"/>
	<path id="패스_8" class="st0" d="M16.9,31.4c0.4,0.1,0.7,0.3,1.1,0.4c2,0.6,4.2,0.1,5.7-1.3c0.5-0.5,1.2-0.8,1.8-1
		c0.8-0.3,1.5-0.6,2.2-1c0.1,0,0.2-0.1,0.3-0.2c0.2,0.5,0.4,1,0.6,1.5c1,2.4,2,4.8,3,7.2c0.4,0.9,0.3,1.7-0.4,2
		c-0.5,0.2-1,0.2-1.5,0.2c-1.1,0-2.2-0.1-3.3-0.1c-0.2,0-0.4,0.1-0.5,0.3c-0.9,0.9-1.7,1.8-2.5,2.6c-0.4,0.7-1.3,0.8-2,0.4
		c-0.3-0.2-0.5-0.5-0.6-0.9c-1.2-3-2.4-6-3.6-9C17.1,32,17,31.7,16.9,31.4L16.9,31.4z"/>
</g>
<g id="그룹_8" transform="translate(551 837)">
	<path id="패스_11" class="st0" d="M-498.3-866.5c0-7.3,0-14.6,0-21.9c-0.2-2.4,1.5-4.6,3.9-5.2c0.5-0.1,1.1-0.2,1.6-0.2
		c7,0,14,0,21.1,0c1.6,0,3.1,0.6,4.2,1.8c2.7,2.8,5.5,5.5,8.3,8.3c1.3,1.2,1.9,2.8,1.9,4.6c0,11.5,0,22.9,0,34.4
		c0.2,2.1-1,4.1-2.9,5c-0.8,0.3-1.7,0.5-2.5,0.5c-10,0-20,0-30,0c-2.9,0.1-5.4-2.2-5.5-5.1c0-0.1,0-0.2,0-0.4
		C-498.3-852-498.3-859.2-498.3-866.5L-498.3-866.5z M-493.2-888.6v44.3h30.6V-875h-0.7c-3.3,0-6.6,0-10,0c-1.4,0.2-2.7-0.9-2.9-2.3
		c0-0.2,0-0.4,0-0.6c0-3.4,0-6.7,0-10.1c0-0.2,0-0.4,0-0.7L-493.2-888.6z M-463.1-880.1l-7.9-7.9v7.9H-463.1z"/>
	<path id="패스_12" class="st0" d="M-477.9-863.1c-2.8,0-5.7,0-8.5,0c-1.2,0-1.7-0.5-1.7-1.7c0-0.7,0-1.5,0-2.2
		c0-1.2,0.5-1.6,1.6-1.6c2.7,0,5.4,0,8.2,0h8.9c1.3,0,1.8,0.4,1.8,1.8c0,0.7,0,1.5,0,2.2c0,1.2-0.5,1.6-1.6,1.6c-2.7,0-5.4,0-8.1,0
		L-477.9-863.1L-477.9-863.1z"/>
	<path id="패스_13" class="st0" d="M-477.9-854.2c-2.9,0-5.7,0-8.6,0c-1.2,0-1.6-0.4-1.6-1.6c0-0.8,0-1.7,0-2.5
		c-0.1-0.7,0.5-1.4,1.2-1.4c0.1,0,0.2,0,0.3,0c5.9,0,11.7,0,17.6,0c0.7-0.1,1.4,0.4,1.4,1.1c0,0.1,0,0.2,0,0.3c0,0.9,0,1.7,0,2.6
		c0,1-0.5,1.5-1.6,1.5C-472.1-854.2-475-854.2-477.9-854.2L-477.9-854.2z"/>
</g>
<g id="그룹_9" transform="translate(845 835)">
	<path id="패스_14" class="st1" d="M-789.9-770.6c0-2.7,0-5.4,0-8c-0.1-2.2,1.5-4.1,3.8-4.3c0.2,0,0.3,0,0.5,0c7,0,14,0,21.1,0
		c2.2-0.2,4.2,1.5,4.4,3.7c0,0.2,0,0.5,0,0.7c0,2.6,0,5.2,0,7.9c0.7,0,1.5,0,2.2,0c1.6-0.1,2.9,1.1,3,2.6c0,0.1,0,0.2,0,0.4
		c0,3.2,0,6.3,0,9.5c0.1,1.6-1.1,2.9-2.6,3c-0.2,0-0.4,0-0.5,0c-0.5-1.5-1-3-1.5-4.5c-0.1-0.4-0.5-0.7-0.9-0.7c0,0,0,0,0,0
		c-9.6,0-19.3,0-29,0c-0.4-0.1-0.8,0.2-0.9,0.6c0,0,0,0,0,0c-0.5,1.5-1,3-1.5,4.5c-1.5,0.2-2.9-0.8-3.1-2.2c0-0.1,0-0.2,0-0.4
		c0-3.4,0-6.8,0-10.1c0-1.5,1.3-2.7,2.8-2.7C-791.5-770.6-790.7-770.6-789.9-770.6z M-757.2-756.5c0.6-0.3,1-0.9,1-1.6
		c0-3.1,0-6.2,0-9.3c0-1.4-0.5-1.9-1.9-1.9h-26.2c-2.6,0-5.1,0-7.7,0c-0.8-0.1-1.6,0.5-1.7,1.3c0,0.1,0,0.1,0,0.2c0,3.3,0,6.6,0,9.8
		c0,0.6,0.4,1.2,1,1.4l1.7-5h32.2L-757.2-756.5z M-784.7-777.6h19.4v7h3.9c0-2.7,0-5.4,0-8.1c0.1-1.5-1.1-2.8-2.6-2.9
		c-0.1,0-0.2,0-0.3,0c-7.1,0-14.3,0-21.4,0c-1.5-0.1-2.8,1.1-2.9,2.6c0,0.1,0,0.2,0,0.3c0,2.5,0,5,0,7.5c0,0.2-0.1,0.4,0.1,0.6h3.8
		V-777.6z M-766.6-776.3h-16.8v5.7h16.8L-766.6-776.3z"/>
	<path id="패스_15" class="st1" d="M-795.3-742.8l5.4-16.3l1.2,0.4l-4.9,14.6h37l-4.9-14.6l1.2-0.4l5.5,16.4H-795.3z"/>
	<path id="패스_16" class="st1" d="M-789.2-746v-1.2h28.4v1.2H-789.2z"/>
	<path id="패스_17" class="st1" d="M-788.6-749.8h27.1v1.2h-27.1C-788.7-749-788.5-749.4-788.6-749.8z"/>
	<path id="패스_18" class="st1" d="M-762.1-752.4v1.2h-25.8v-1.2H-762.1z"/>
	<path id="패스_19" class="st1" d="M-762.7-755v1.2h-24.5v-1.2H-762.7z"/>
	<path id="패스_20" class="st1" d="M-786.6-756.4v-1.2h23.2v1.2H-786.6z"/>
	<path id="패스_21" class="st1" d="M-760.1-768.6c0.7,0,1.3,0.6,1.3,1.3c0,0,0,0,0,0c0,0.7-0.6,1.3-1.3,1.3c0,0,0,0,0,0
		c-0.7,0-1.2-0.6-1.3-1.3C-761.4-768-760.8-768.6-760.1-768.6C-760.1-768.6-760.1-768.6-760.1-768.6z"/>
	<path id="패스_22" class="st1" d="M-760.1-762.8c-0.7,0-1.3-0.5-1.3-1.3c0,0,0,0,0,0c0-0.7,0.5-1.3,1.2-1.3
		c0.7,0,1.3,0.5,1.4,1.2c0,0,0,0,0,0C-758.8-763.4-759.4-762.8-760.1-762.8C-760.1-762.8-760.1-762.8-760.1-762.8z"/>
</g>
<path id="패스_24" class="st0" d="M22.9-55.1c0.9-0.9,1.8-1.7,2.6-2.6c5.8-5.7,11.5-11.4,17.3-17.1c1.4-1.4,2.1-1.4,3.5,0
	c0.7,0.7,1.5,1.5,2.2,2.2c1.3,1.3,1.3,2,0,3.2c-3.3,3.3-6.6,6.6-10,9.9c-4.6,4.6-9.2,9.2-13.8,13.8c-0.3,0.3-0.6,0.5-0.9,0.8
	c-0.5,0.5-1.3,0.4-1.9,0c-0.3-0.2-0.5-0.4-0.8-0.7c-4-4.1-8.1-8.2-12.1-12.3c-1.2-1.2-1.2-1.9,0-3.1c0.9-0.9,1.7-1.7,2.6-2.6
	c0.5-0.8,1.6-1,2.4-0.5c0.2,0.1,0.3,0.3,0.5,0.5c2.6,2.6,5.1,5.1,7.7,7.7C22.3-55.6,22.6-55.4,22.9-55.1z"/>
<g id="그룹_33" transform="translate(19 8)">
	<g id="그룹_31" transform="translate(748 603)">
		<path id="패스_32" class="st0" d="M-679.7-609.8h5.7c0,0.2,0.2,0.2,0.3,0.2c11,1.2,20.1,9.1,22.9,19.8c0.2,1.3,0.5,2.6,0.9,3.8
			v6.2c-0.4,0.4-0.3,0.9-0.4,1.4c-1.9,10.7-10,19.2-20.6,21.6c-1,0.1-2.1,0.3-3,0.6h-6c-0.3-0.4-0.9-0.3-1.3-0.4
			c-11.1-2.3-18.2-8.9-21.5-19.7c-0.2-1.2-0.4-2.4-0.9-3.5v-6.4c0.4-0.4,0.3-0.9,0.4-1.4c2.1-10.3,8.1-17.2,17.9-20.8
			C-683.4-609-681.5-609.1-679.7-609.8z M-653.2-582.9c0-13-10.5-23.5-23.4-23.5c-13,0-23.5,10.5-23.6,23.5c0,0,0,0,0,0
			c0,13,10.5,23.5,23.4,23.5C-663.8-559.4-653.2-569.9-653.2-582.9C-653.2-582.9-653.2-582.9-653.2-582.9L-653.2-582.9z"/>
		<path id="패스_33" class="st0" d="M-673.7-592.8c-0.4,3.8-0.8,7.7-1.2,11.6c-0.1,1-0.9,1.7-1.8,1.6c0,0,0,0,0,0
			c-0.9,0-1.7-0.7-1.8-1.6c-0.4-3.9-0.8-7.8-1.2-11.7c-0.3-1.6,0.8-3.2,2.5-3.4c0.2,0,0.4,0,0.6,0c1.7,0,3,1.4,3,3.1
			C-673.7-593.1-673.7-592.9-673.7-592.8z"/>
		<path id="패스_34" class="st0" d="M-676.7-576.1c1.8-0.1,3.3,1.3,3.3,3.1c0,0.1,0,0.1,0,0.2c0,1.8-1.4,3.3-3.2,3.4
			c0,0,0,0-0.1,0c-1.8,0-3.3-1.4-3.3-3.3c0,0,0,0,0-0.1c-0.1-1.8,1.3-3.3,3.1-3.3C-676.9-576.1-676.8-576.1-676.7-576.1z"/>
	</g>
</g>
</svg>
