<?xml version="1.0" encoding="utf-8"?>
<!-- Generator: Adobe Illustrator 23.1.0, SVG Export Plug-In . SVG Version: 6.00 Build 0)  -->
<svg version="1.1" id="Layer_1" xmlns="http://www.w3.org/2000/svg" xmlns:xlink="http://www.w3.org/1999/xlink" x="0px" y="0px"
	 viewBox="0 0 300 337" style="enable-background:new 0 0 300 337;" xml:space="preserve">
<style type="text/css">
	.st0{fill:#82C81F;}
	.st1{fill:#BD4BDA;}
	.st2{fill:#FFFFFF;}
</style>
<g>
	<path class="st0" d="M-321.1,4.8c0,36,0,72.1,0,108.1c0,11.5-4.7,18.1-15.5,21.9c-30.7,10.7-61.4,21.4-92.1,32.1
		c-10.1,3.5-20.2,3.5-30.4-0.1c-34.9-12.3-69.8-24.5-104.7-36.9c-2.2-0.8-3.9-0.7-6,0.1c-34.8,12.8-69.7,25.6-104.5,38.4
		c-7.1,2.6-12.3,0.5-14.7-5.7c-0.6-1.5-0.6-2.9-0.6-4.4c0-73.2,0-146.4,0-219.6c0-10.1,5-17,14.6-20.3
		c31.2-10.9,62.4-21.8,93.6-32.6c9.8-3.4,19.5-3.3,29.3,0.2c34.7,12.3,69.6,24.5,104.3,36.8c2.8,1,5.1,1,7.9-0.1
		c34.5-12.8,69.1-25.6,103.7-38.3c8.8-3.2,15.3,1.2,15.3,10.6C-321.1-68.5-321.1-31.9-321.1,4.8L-321.1,4.8z M-464.4-50.6
		c-27.4-9.7-54.5-19.3-81.9-28.9c-0.1,1-0.1,1.5-0.1,2c0,59.3,0,118.7-0.1,178c0,2.7,1.3,3.3,3.3,4c25.1,8.8,50.2,17.7,75.3,26.5
		c1.1,0.4,2.2,1.2,3.5,0.7C-464.4,71.1-464.4,10.4-464.4-50.6z M-577.1-83.2c-1.1,0.3-1.7,0.5-2.3,0.7c-25.5,8.8-51,17.7-76.6,26.4
		c-2.8,1-3,2.6-3,5c0,58.9,0,117.7,0.1,176.6c0,1.3-0.4,2.7,0.4,3.9c1.1,0.2,2-0.3,2.9-0.6c25-9.2,50-18.5,75.1-27.6
		c2.8-1,3.5-2.3,3.5-5.1c-0.1-43-0.1-86-0.1-129.1C-577.1-49.5-577.1-66.1-577.1-83.2z M-433.6,136.1c27.7-9.7,54.8-19.2,81.6-28.6
		c0-61.6,0-122.6,0-183.9c-4.3,0.3-7.9,2.2-11.6,3.6c-22.3,8-44.4,16.4-66.7,24.4c-2.7,1-3.5,2.3-3.4,5.1
		c0.1,56.6,0.1,113.2,0.1,169.8C-433.6,129.4-433.6,132.4-433.6,136.1z"/>
</g>
<g>
	<path class="st1" d="M-645.7,415.1c0,3.4,0,7,0,10.6c0,10.2,0.2,20.5-0.1,30.7c-0.6,21.9-18.1,39.7-40,40.1
		c-21.2,0.4-37.9-14.8-40.9-33.9c-1.6-10-0.7-20.2-0.7-30.2c-0.1-69.5-0.1-138.9,0-208.4c0-11.8-2.3-22.7-9.1-32.5
		c-0.3-0.4-0.3-0.9-0.5-1.3c1.4-0.9,2.8-0.5,4.1-0.5c69.5,0,139,0,208.5,0c30.8,0,54.7,18.6,61.7,48.1c1.2,4.9,1.4,9.8,1.4,14.8
		c0,52.5,0,105,0.1,157.5c0,4-1.3,4.6-4.9,4.6c-58.3-0.1-116.5-0.1-174.8-0.1C-642.4,414.6-643.9,414.3-645.7,415.1z"/>
	<path class="st1" d="M-677.4,517c13.5-3,25.3-8.7,34.8-18.7c11.6-12.1,17.3-26.6,17.6-43.2c0.1-6.5,0-12.9,0-19.2
		c1.6-1.1,3-0.7,4.3-0.7c69.5,0,138.9,0,208.4,0c9.1,0,12.3,3.5,12.2,12.5c-0.4,34.1-27.5,64.4-61.8,68.6c-3.5,0.4-6.9,0.6-10.4,0.6
		c-67.5,0-134.9,0-202.4,0.1C-675.6,517-676.5,517-677.4,517z"/>
	<path class="st1" d="M-748.4,270.9c-1.1,0.8-2.3,0.5-3.4,0.5c-15.2,0-30.4,0-45.6,0c-7.8,0-12-3.9-12.1-11.6
		c0-14.1-0.4-28.1,0.3-42.2c0.7-14.5,14.1-28.4,31.1-28.1c15.4,0.3,29.7,13.4,29.8,29.2c0.1,16.9,0.1,33.9,0.1,50.8
		C-748.2,270-748.4,270.5-748.4,270.9z"/>
</g>
<g>
	<g>
		<path class="st2" d="M68.9,47.7c0-7.4,0-14.3,0-21.1c0-4.1-0.1-8.2,0.1-12.3c0.2-4.3,2.8-7,7.1-7.1c8.7-0.1,17.5-0.1,26.2,0
			c4.5,0.1,7.3,3,7.3,7.7c0.1,9.4,0,18.7,0,28.1c0,1.4,0,2.7,0,4.4c27.3,0,54.4,0,81.6,0c0.9-1.1,0.5-2.5,0.5-3.9c0-9,0-18,0-26.9
			c0-6.9,2.6-9.5,9.5-9.5c7.1,0,14.2,0,21.3,0c7.6,0,9.8,2.1,9.8,9.7c0,8.9,0,17.7,0,26.6c0,1.3-0.2,2.7,0.6,4.4c7,0,14.1,0,21.2,0
			c6.7,0,13.4,0,19.9,2.1c10,3.2,19.5,15,19.5,25.5c0.2,36.9,0.2,73.8,0.2,110.7c0,38.7-0.4,77.3,0.2,116
			c0.3,18.5-15,32.7-32.4,32.5c-43.9-0.6-87.8-0.2-131.7-0.2c-30.1,0-60.1-0.3-90.2,0.1c-14.9,0.2-28-9.6-31.4-23.6
			c-0.7-2.7-0.6-5.4-0.6-8.2c0-74.3,0.1-148.7-0.1-223c0-14.5,9.2-27.2,22.9-30.8c3.3-0.8,6.6-1.2,10-1.2
			C49.6,47.7,58.9,47.7,68.9,47.7z M37.7,109.3c0,1.5,0,2.6,0,3.7c0,60.2,0,120.5,0,180.7c0,9.8,0.5,10.3,10.3,10.3
			c69.2,0,138.4,0,207.7,0c6.4,0,7.7-1.4,7.7-7.6c0-61,0-122,0-183c0-1.3,0.4-2.7-0.5-4.2C188.1,109.3,113.2,109.3,37.7,109.3z"/>
		<path class="st2" d="M68.9,231.6c0-4.2-0.1-8.5,0-12.7c0.1-4.4,1.9-6.7,6.5-7.1c5.5-0.5,11-0.2,16.4-0.3c3.1,0,6.2-0.1,9.4,0
			c5.4,0.2,8.3,3.1,8.3,8.5c0.1,8.1,0.1,16.2,0,24.3c0,4.8-2.9,8.1-7.8,8.2c-8.1,0.2-16.2,0.3-24.3,0c-5.9-0.2-8.5-3.1-8.5-9
			C68.8,239.6,68.9,235.6,68.9,231.6L68.9,231.6z"/>
		<path class="st2" d="M232.3,170.6c0,3.9,0,7.7,0,11.6c-0.1,5.9-2.6,8.8-8.5,9c-8,0.2-15.9,0.2-23.9,0c-4.9-0.1-8.5-3.4-8.3-8.9
			c0.3-7.7,0-15.4,0.1-23.2c0-6,2.9-8.9,8.9-9c7.5-0.1,14.9-0.1,22.4,0c6.7,0.1,9.2,2.6,9.3,9.3
			C232.4,163.2,232.3,166.9,232.3,170.6z"/>
		<path class="st2" d="M232.3,232.2c0,3.9,0,7.7,0,11.6c-0.1,5.6-2.4,8.5-7.9,8.7c-8.2,0.3-16.5,0.3-24.7,0c-5.4-0.2-8-3.4-8-8.8
			c0-7.9,0-15.7,0-23.6c0-5.5,3-8.5,8.6-8.6c7.7-0.1,15.5-0.1,23.2,0c6.1,0.1,8.8,2.9,8.8,9C232.4,224.4,232.3,228.3,232.3,232.2z"
			/>
		<path class="st2" d="M68.9,170.6c0-4,0-8,0-12c0.1-5.3,2.7-8.3,7.9-8.4c8.2-0.2,16.5-0.2,24.7,0.1c5.4,0.2,8,3.2,8,8.7
			c0,7.7,0.1,15.5,0,23.2c0,5.8-2.8,8.9-8.6,9c-7.9,0.2-15.7,0.2-23.6,0c-6-0.2-8.4-3-8.5-9C68.8,178.3,68.9,174.4,68.9,170.6z"/>
		<path class="st2" d="M170.9,232.1c0,3.9,0,7.7,0,11.6c-0.1,5.5-2.8,8.7-8.4,8.8c-8.1,0.2-16.2,0.2-24.3,0c-5-0.1-7.9-3.4-7.9-8.4
			c-0.1-8-0.1-15.9,0-23.9c0-5.6,2.9-8.6,8.5-8.7c7.8-0.1,15.7-0.1,23.5,0c5.5,0.1,8.5,3.1,8.5,8.6
			C170.9,224.2,170.9,228.2,170.9,232.1z"/>
		<path class="st2" d="M170.9,171.2c0,3.7-0.2,7.5,0,11.2c0.4,5.2-3.1,8.6-8,8.8c-8.2,0.2-16.4,0.3-24.6,0c-5.4-0.2-7.9-3.4-8-8.8
			c0-7.7,0-15.4,0-23.2c0-5.8,2.8-8.8,8.6-8.9c8-0.2,15.9-0.2,23.9,0c5.2,0.1,7.9,3.1,8.1,8.3c0,0.2,0,0.5,0,0.7
			C170.9,163.2,170.9,167.2,170.9,171.2z"/>
	</g>
</g>
</svg>
