<?xml version="1.0" encoding="utf-8"?>
<!-- Generator: Adobe Illustrator 23.1.0, SVG Export Plug-In . SVG Version: 6.00 Build 0)  -->
<svg version="1.1" id="Layer_1" xmlns="http://www.w3.org/2000/svg" xmlns:xlink="http://www.w3.org/1999/xlink" x="0px" y="0px"
	 viewBox="0 0 272 322" style="enable-background:new 0 0 272 322;" xml:space="preserve">
<style type="text/css">
	.st0{fill:#82C81F;}
	.st1{fill:#BD4BDA;}
	.st2{fill:#F683AC;}
	.st3{fill:#FFFFFF;}
</style>
<g>
	<path class="st0" d="M-346.1,84.8c0,36,0,72.1,0,108.1c0,11.5-4.7,18.1-15.5,21.9c-30.7,10.7-61.4,21.4-92.1,32.1
		c-10.1,3.5-20.2,3.5-30.4-0.1c-34.9-12.3-69.8-24.5-104.7-36.9c-2.2-0.8-3.9-0.7-6,0.1c-34.8,12.8-69.7,25.6-104.5,38.4
		c-7.1,2.6-12.3,0.5-14.7-5.7c-0.6-1.5-0.6-2.9-0.6-4.4c0-73.2,0-146.4,0-219.6c0-10.1,5-17,14.6-20.3
		c31.2-10.9,62.4-21.8,93.6-32.6c9.8-3.4,19.5-3.3,29.3,0.2c34.7,12.3,69.6,24.5,104.3,36.8c2.8,1,5.1,1,7.9-0.1
		c34.5-12.9,69.1-25.6,103.7-38.3c8.8-3.2,15.3,1.2,15.3,10.6C-346.1,11.5-346.1,48.1-346.1,84.8L-346.1,84.8z M-489.4,29.4
		c-27.4-9.7-54.5-19.3-81.9-28.9c-0.1,1-0.1,1.5-0.1,2c0,59.3,0,118.7-0.1,178c0,2.7,1.3,3.3,3.3,4c25.1,8.8,50.2,17.7,75.3,26.5
		c1.1,0.4,2.2,1.2,3.5,0.7C-489.4,151.1-489.4,90.4-489.4,29.4z M-602.1-3.2c-1.1,0.3-1.7,0.5-2.3,0.7c-25.5,8.8-51,17.7-76.6,26.4
		c-2.8,1-3,2.6-3,5c0,58.9,0,117.7,0.1,176.6c0,1.3-0.4,2.7,0.4,3.9c1.1,0.2,2-0.3,2.9-0.6c25-9.2,50-18.5,75.1-27.6
		c2.8-1,3.5-2.3,3.5-5.1c-0.1-43-0.1-86-0.1-129.1C-602.1,30.5-602.1,13.9-602.1-3.2z M-458.6,216.1c27.7-9.7,54.8-19.2,81.6-28.6
		c0-61.6,0-122.6,0-183.9c-4.3,0.3-7.9,2.2-11.6,3.6c-22.3,8-44.4,16.4-66.7,24.4c-2.7,1-3.5,2.3-3.4,5.1
		c0.1,56.6,0.1,113.2,0.1,169.8C-458.6,209.4-458.6,212.4-458.6,216.1z"/>
</g>
<g>
	<path class="st1" d="M-670.7,495.1c0,3.4,0,7,0,10.6c0,10.2,0.2,20.5-0.1,30.7c-0.6,21.9-18.1,39.7-40,40.1
		c-21.2,0.4-37.9-14.8-40.9-33.9c-1.6-10-0.7-20.2-0.7-30.2c-0.1-69.5-0.1-138.9,0-208.4c0-11.8-2.3-22.7-9.1-32.5
		c-0.3-0.4-0.3-0.9-0.5-1.3c1.4-0.9,2.8-0.5,4.1-0.5c69.5,0,139,0,208.5,0c30.8,0,54.7,18.6,61.7,48.1c1.2,4.9,1.4,9.8,1.4,14.8
		c0,52.5,0,105,0.1,157.5c0,4-1.3,4.6-4.9,4.6c-58.3-0.1-116.5-0.1-174.8-0.1C-667.4,494.6-668.9,494.3-670.7,495.1z"/>
	<path class="st1" d="M-702.4,597c13.5-3,25.3-8.7,34.8-18.7c11.6-12.1,17.3-26.6,17.6-43.2c0.1-6.5,0-12.9,0-19.2
		c1.6-1.1,3-0.7,4.3-0.7c69.5,0,138.9,0,208.4,0c9.1,0,12.3,3.5,12.2,12.5c-0.4,34.1-27.5,64.4-61.8,68.6c-3.5,0.4-6.9,0.6-10.4,0.6
		c-67.5,0-134.9,0-202.4,0.1C-700.6,597-701.5,597-702.4,597z"/>
	<path class="st1" d="M-773.4,350.9c-1.1,0.8-2.3,0.5-3.4,0.5c-15.2,0-30.4,0-45.6,0c-7.8,0-12-3.9-12.1-11.6
		c0-14.1-0.4-28.1,0.3-42.2c0.7-14.5,14.1-28.4,31.1-28.1c15.4,0.3,29.7,13.4,29.8,29.2c0.1,16.9,0.1,33.9,0.1,50.8
		C-773.2,350-773.4,350.5-773.4,350.9z"/>
</g>
<g>
	<g>
		<path class="st2" d="M-495.1,469.7c0-7.4,0-14.3,0-21.1c0-4.1-0.1-8.2,0.1-12.3c0.2-4.3,2.8-7,7.1-7.1c8.7-0.1,17.5-0.1,26.2,0
			c4.5,0.1,7.3,3,7.3,7.7c0.1,9.4,0,18.7,0,28.1c0,1.4,0,2.7,0,4.4c27.3,0,54.4,0,81.6,0c0.9-1.1,0.5-2.5,0.5-3.9c0-9,0-18,0-26.9
			c0-6.9,2.6-9.5,9.5-9.5c7.1,0,14.2,0,21.3,0c7.6,0,9.8,2.1,9.8,9.7c0,8.9,0,17.7,0,26.6c0,1.3-0.2,2.7,0.6,4.4c7,0,14.1,0,21.2,0
			c6.7,0,13.4,0,19.9,2.1c10,3.2,19.5,15,19.5,25.5c0.2,36.9,0.2,73.8,0.2,110.7c0,38.7-0.4,77.3,0.2,116
			c0.3,18.5-15,32.7-32.4,32.5c-43.9-0.6-87.8-0.2-131.7-0.2c-30.1,0-60.1-0.3-90.2,0.1c-14.9,0.2-28-9.6-31.4-23.6
			c-0.7-2.7-0.6-5.4-0.6-8.2c0-74.3,0.1-148.7-0.1-223c0-14.5,9.2-27.2,22.9-30.8c3.3-0.8,6.6-1.2,10-1.2
			C-514.4,469.7-505.1,469.7-495.1,469.7z M-526.3,531.3c0,1.5,0,2.6,0,3.7c0,60.2,0,120.5,0,180.7c0,9.8,0.5,10.3,10.3,10.3
			c69.2,0,138.4,0,207.7,0c6.4,0,7.7-1.4,7.7-7.6c0-61,0-122,0-183c0-1.3,0.4-2.7-0.5-4.2C-375.9,531.3-450.8,531.3-526.3,531.3z"/>
		<path class="st2" d="M-495.1,653.6c0-4.2-0.1-8.5,0-12.7c0.1-4.4,1.9-6.7,6.5-7.1c5.5-0.5,11-0.2,16.4-0.3c3.1,0,6.2-0.1,9.4,0
			c5.4,0.2,8.3,3.1,8.3,8.5c0.1,8.1,0.1,16.2,0,24.3c0,4.8-2.9,8.1-7.8,8.2c-8.1,0.2-16.2,0.3-24.3,0c-5.9-0.2-8.5-3.1-8.5-9
			C-495.2,661.6-495.1,657.6-495.1,653.6L-495.1,653.6z"/>
		<path class="st2" d="M-331.7,592.6c0,3.9,0,7.7,0,11.6c-0.1,5.9-2.6,8.8-8.5,9c-8,0.2-15.9,0.2-23.9,0c-4.9-0.1-8.5-3.4-8.3-8.9
			c0.3-7.7,0-15.4,0.1-23.2c0-6,2.9-8.9,8.9-9c7.5-0.1,14.9-0.1,22.4,0c6.7,0.1,9.2,2.6,9.3,9.3
			C-331.6,585.2-331.7,588.9-331.7,592.6z"/>
		<path class="st2" d="M-331.7,654.2c0,3.9,0,7.7,0,11.6c-0.1,5.6-2.4,8.5-7.9,8.7c-8.2,0.3-16.5,0.3-24.7,0c-5.4-0.2-8-3.4-8-8.8
			c0-7.9,0-15.7,0-23.6c0-5.5,3-8.5,8.6-8.6c7.7-0.1,15.5-0.1,23.2,0c6.1,0.1,8.8,2.9,8.8,9C-331.6,646.4-331.7,650.3-331.7,654.2z"
			/>
		<path class="st2" d="M-495.1,592.6c0-4,0-8,0-12c0.1-5.3,2.7-8.3,7.9-8.4c8.2-0.2,16.5-0.2,24.7,0.1c5.4,0.2,8,3.2,8,8.7
			c0,7.7,0.1,15.5,0,23.2c0,5.8-2.8,8.9-8.6,9c-7.9,0.2-15.7,0.2-23.6,0c-6-0.2-8.4-3-8.5-9C-495.2,600.3-495.1,596.4-495.1,592.6z"
			/>
		<path class="st2" d="M-393.1,654.1c0,3.9,0,7.7,0,11.6c-0.1,5.5-2.8,8.7-8.4,8.8c-8.1,0.2-16.2,0.2-24.3,0c-5-0.1-7.9-3.4-7.9-8.4
			c-0.1-8-0.1-15.9,0-23.9c0-5.6,2.9-8.6,8.5-8.7c7.8-0.1,15.7-0.1,23.5,0c5.5,0.1,8.5,3.1,8.5,8.6
			C-393.1,646.2-393.1,650.2-393.1,654.1z"/>
		<path class="st2" d="M-393.1,593.2c0,3.7-0.2,7.5,0,11.2c0.4,5.2-3.1,8.6-8,8.8c-8.2,0.2-16.4,0.3-24.6,0c-5.4-0.2-7.9-3.4-8-8.8
			c0-7.7,0-15.4,0-23.2c0-5.8,2.8-8.8,8.6-8.9c8-0.2,15.9-0.2,23.9,0c5.2,0.1,7.9,3.1,8.1,8.3c0,0.2,0,0.5,0,0.7
			C-393.1,585.2-393.1,589.2-393.1,593.2z"/>
	</g>
</g>
<g>
	<g>
		<path class="st3" d="M112.9,300.1c0-10.4,0-21.1,0-31.8c0-2.6-0.5-4.6-2.3-6.7c-3.9-4.5-5.9-9.9-6.7-16
			c-1.7-13.2-3.9-26.3-6.4-39.3c-1.3-6.9-4.9-13-9.5-18.4c-9.5-11.1-17.1-23.4-19.8-37.9c-3.9-21.1,2-39.9,15.1-56.4
			c24-30,63.7-32.6,89.4-19.1c30.7,16.2,42.4,46.5,39.3,71.9c-1.7,13.7-7.5,26.1-16.5,36.2C185,194.4,180.7,208,179,223
			c-1,8.7-2.7,17.4-4.2,26.1c-0.7,4.3-2.1,8.5-5.2,11.7c-2.6,2.7-3,5.6-3,9c0.1,9-0.1,18,0.1,27c0.1,3-0.7,4.9-3.8,5.1
			c-2.9,0.2-3.8,1.9-5,4.5c-3.6,8.1-11.4,9.3-18.9,9.1c-8.2-0.2-15.9-1.9-18.6-11.6C119.4,300.8,115,302.6,112.9,300.1z M139.5,252
			c2,0,4,0,6,0c6.8,0,9-1.7,10.2-8.2c1.2-6.9,2.1-13.8,3.4-20.6c2.4-13.2,3.4-26.7,10.7-38.6c3.8-6.2,8.8-11.2,12.8-17.2
			c8.2-12.2,12.7-25,8.9-40c-7.1-27.8-32.2-44.5-60.7-40.4c-23,3.4-42.3,24.7-43.9,47.7c-1.1,15.9,6.1,28.3,15.5,39.7
			c7.7,9.3,13.1,19.5,15.1,31.5c1.8,10.6,4,21.2,5.3,31.9C124.7,253.2,127,251.9,139.5,252z M156.4,270.7c-11.2,1.2-22.1,1.5-33.2,0
			c-0.5,2.3-0.5,4.7,0.1,7.1c11.2,2.4,22.2,2.8,33.2-0.2C156.4,275,156.4,272.9,156.4,270.7z M156.2,287.7
			c-11.1,2.8-22,2.2-32.9,0.2c-0.6,1.9-0.6,3.5,0.1,5.5c9.4,2.1,18.9,2.1,28.5,0.9C155.8,293.7,157.7,292.5,156.2,287.7z"/>
		<path class="st3" d="M223.2,97.2c-2.6,0-4.1-1.3-4.9-3.3c-0.8-2.1-0.2-4.2,1.6-5.3c8.1-4.9,16.3-9.6,24.5-14.2
			c2.1-1.2,4.3-0.4,5.7,1.6c1.5,2.1,1.6,5-0.5,6.3c-8.3,5.1-16.9,9.9-25.4,14.7C224,97.2,223.4,97.1,223.2,97.2z"/>
		<path class="st3" d="M53.6,181.9c1.5-0.1,3,1.1,3.9,3c1.1,2.3,0.3,4.5-1.7,5.7c-7.9,4.8-15.9,9.5-24,14c-2.2,1.2-4.6,0.6-6.1-1.7
			c-1.3-2-1.6-4.5,0.4-5.9c8.2-5.6,16.8-10.5,25.7-15C52.1,181.9,52.5,181.9,53.6,181.9z"/>
		<path class="st3" d="M59.8,89.6c-0.1,3.5-3.9,6-7.3,4.1c-8-4.3-15.9-8.9-23.8-13.6c-2.5-1.5-2.9-4.2-1.4-6.6
			c1.4-2.3,3.7-3.4,6.4-1.8c7.8,4.5,15.5,8.9,23.3,13.4C58.6,86.1,59.5,87.7,59.8,89.6z"/>
		<path class="st3" d="M27.6,133c4.3,0,8.6,0,13,0c3.2,0,5.1,1.8,5.2,4.8c0.1,3.1-2,5-5,5c-8.8,0.1-17.6,0.2-26.4,0
			c-3,0-5.2-1.7-5.2-4.9c0-3.5,2.2-5,5.5-5C18.9,133,23.2,133,27.6,133z"/>
		<path class="st3" d="M248.6,146.1c-4.3,0-8.6,0-13,0c-3.2,0-5.2-1.8-5.3-4.8c-0.1-3.1,2-5.1,5-5.1c9-0.1,18-0.1,26.9,0.1
			c3,0.1,4.9,2,4.7,5.3c-0.2,3-2,4.4-4.9,4.5C257.6,146.1,253.1,146.1,248.6,146.1z"/>
		<path class="st3" d="M134.9,28.8c0-4.3,0.1-8.6,0-12.9c-0.1-3.2,1.5-5.3,4.6-5.3c3-0.1,5.1,1.7,5.1,4.9c0.1,8.9,0.1,17.9,0,26.8
			c-0.1,3-1.7,5-5.1,4.8c-3.3-0.2-4.6-2.1-4.6-5.3C135,37.5,134.9,33.2,134.9,28.8z"/>
		<path class="st3" d="M77.7,26.2c1.8,0.4,3.3,1.3,4.3,3c4.2,7.3,8.4,14.6,12.6,21.9c1.8,3,1.9,5.9-1.4,7.6
			c-3.1,1.6-5.6,0.3-7.4-2.9c-4-7.2-8.3-14.3-12.3-21.5C71.3,30.2,73.5,26,77.7,26.2z"/>
		<path class="st3" d="M206.3,33.2c0.1,1.4-0.8,2.8-1.7,4.2c-3.8,6.6-7.7,13.2-11.4,19.8c-1.8,3.2-4.1,5.1-7.6,3
			c-3.2-1.9-2.8-4.7-1-7.7c4.3-7.1,8.3-14.4,12.4-21.6c1.4-2.5,3.5-3.6,6.2-2.7C205.2,28.9,206.3,30.5,206.3,33.2z"/>
		<path class="st3" d="M222.3,184.7c0.8,0.4,1.9,0.8,2.9,1.3c6.9,4,13.7,8.1,20.7,11.9c3.3,1.8,5,4.3,2.9,7.7
			c-1.9,3.2-4.8,2.8-7.8,1c-7.1-4.3-14.3-8.4-21.5-12.5c-2.5-1.4-3.4-3.5-2.6-6.3C217.6,185.3,219.7,184.8,222.3,184.7z"/>
	</g>
</g>
</svg>
