<?xml version="1.0" encoding="utf-8"?>
<!-- Generator: Adobe Illustrator 23.1.0, SVG Export Plug-In . SVG Version: 6.00 Build 0)  -->
<svg version="1.1" id="Layer_1" xmlns="http://www.w3.org/2000/svg" xmlns:xlink="http://www.w3.org/1999/xlink" x="0px" y="0px"
	 viewBox="0 0 42.1 56.7" style="enable-background:new 0 0 42.1 56.7;" xml:space="preserve">
<style type="text/css">
	.st0{fill:#FFFFFF;}
	.st1{fill:#FFFFFF;stroke:#FFFFFF;}
</style>
<g id="그룹_68" transform="translate(-0.324)">
	<path id="패스_6" class="st0" d="M1071.9-313.7c0.5,0.1,1,0.2,1.5,0.3c0.9,0.3,2,0.3,2.9,0c0.4-0.1,0.8-0.2,1.2-0.3
		c1.1-0.2,2.2,0.3,2.9,1.1c0.8,1,2,1.7,3.2,1.9c1.4,0.2,2.5,1.4,2.7,2.8c0.2,1.2,0.8,2.3,1.8,3.1c1.1,0.9,1.5,2.4,1.1,3.7
		c-0.4,1.3-0.4,2.7,0,4c0.4,1.3,0.1,2.7-1,3.6c-1,0.8-1.6,2-1.8,3.2c-0.2,1.5-1.4,2.6-2.8,2.8c-1.1,0.2-2,0.8-2.8,1.5
		c-1.1,1.1-2.9,1.3-4.2,0.5c-0.8-0.5-1.9-0.6-2.8-0.3c-0.1,0-0.2,0.1-0.4,0.1c-1.5,1.1-3.5,0.8-4.7-0.6c-0.7-0.7-1.5-1.1-2.5-1.2
		c-1.2-0.2-2.2-1.1-2.6-2.2c-0.2-0.5-0.3-1-0.4-1.5c-0.2-0.7-0.5-1.2-1-1.7c-0.5-0.4-0.9-0.9-1.3-1.5c-0.5-0.8-0.6-1.8-0.3-2.7
		c0.2-0.8,0.3-1.6,0.3-2.4c-0.1-0.6-0.2-1.2-0.4-1.8c-0.3-1.2,0.1-2.6,1-3.4c0.1-0.1,0.2-0.3,0.4-0.4c0.8-0.7,1.3-1.6,1.5-2.6
		c0.1-0.6,0.4-1.2,0.7-1.7c0.4-0.7,1.1-1.2,1.9-1.3c1.4-0.2,2.6-1,3.5-2c0.4-0.5,1.1-0.9,1.8-1
		C1071.4-313.6,1071.6-313.6,1071.9-313.7L1071.9-313.7z M1074.8-307.1c-4.3,0-7.7,3.5-7.7,7.7c0,0,0,0.1,0,0.1
		c-0.1,4.3,3.2,7.8,7.5,7.9c0,0,0.1,0,0.1,0c4.3,0.1,7.8-3.2,7.9-7.5c0-0.1,0-0.2,0-0.4c0.1-4.3-3.3-7.8-7.6-7.9
		C1074.9-307.1,1074.9-307.1,1074.8-307.1L1074.8-307.1z"/>
	<path id="패스_7" class="st0" d="M1074-282.7c-0.4,1-0.8,2-1.2,2.9c-0.9,2.3-1.9,4.7-2.8,7c-0.4,0.9-0.8,1.3-1.4,1.2
		c-0.4-0.1-0.7-0.2-1-0.5c-0.9-0.9-1.7-1.8-2.6-2.7c-0.2-0.3-0.6-0.4-0.9-0.4c-1.2,0.1-2.4,0.1-3.6,0.2c-0.7,0.1-1.4-0.4-1.5-1.1
		c0-0.3,0-0.6,0.2-0.9c1.2-2.9,2.4-5.8,3.5-8.7c0-0.1,0.1-0.1,0.1-0.2c0.7,0.3,1.3,0.6,1.9,0.9c0.3,0.1,0.7,0.2,1,0.3
		c0.5,0.1,0.9,0.4,1.3,0.7c1.7,1.8,4.3,2.2,6.6,1.2C1073.7-282.7,1073.9-282.7,1074-282.7L1074-282.7z"/>
	<path id="패스_8" class="st0" d="M1075.6-282.7c0.4,0.1,0.7,0.3,1.1,0.4c2,0.6,4.2,0.1,5.7-1.3c0.5-0.5,1.2-0.8,1.8-1
		c0.8-0.3,1.5-0.6,2.2-1c0.1,0,0.2-0.1,0.3-0.2c0.2,0.5,0.4,1,0.6,1.5c1,2.4,2,4.8,3,7.2c0.4,0.9,0.3,1.7-0.4,2
		c-0.5,0.2-1,0.2-1.5,0.2c-1.1,0-2.2-0.1-3.3-0.1c-0.2,0-0.4,0.1-0.5,0.3c-0.9,0.9-1.7,1.8-2.5,2.6c-0.4,0.7-1.3,0.8-2,0.4
		c-0.3-0.2-0.5-0.5-0.6-0.9c-1.2-3-2.4-6-3.6-9C1075.8-282.1,1075.7-282.4,1075.6-282.7L1075.6-282.7z"/>
</g>
<g id="그룹_8" transform="translate(551 837)">
	<path id="패스_11" class="st0" d="M-550.4-808.9c0-7.3,0-14.6,0-21.9c-0.2-2.4,1.5-4.6,3.9-5.2c0.5-0.1,1.1-0.2,1.6-0.2
		c7,0,14,0,21.1,0c1.6,0,3.1,0.6,4.2,1.8c2.7,2.8,5.5,5.5,8.3,8.3c1.3,1.2,1.9,2.8,1.9,4.6c0,11.5,0,22.9,0,34.4
		c0.2,2.1-1,4.1-2.9,5c-0.8,0.3-1.7,0.5-2.5,0.5c-10,0-20,0-30,0c-2.9,0.1-5.4-2.2-5.5-5.1c0-0.1,0-0.2,0-0.4
		C-550.4-794.4-550.4-801.7-550.4-808.9L-550.4-808.9z M-545.3-831.1v44.3h30.6v-30.6h-0.7c-3.3,0-6.6,0-10,0
		c-1.4,0.2-2.7-0.9-2.9-2.3c0-0.2,0-0.4,0-0.6c0-3.4,0-6.7,0-10.1c0-0.2,0-0.4,0-0.7L-545.3-831.1z M-515.2-822.6l-7.9-7.9v7.9
		H-515.2z"/>
	<path id="패스_12" class="st0" d="M-530-805.5c-2.8,0-5.7,0-8.5,0c-1.2,0-1.7-0.5-1.7-1.7c0-0.7,0-1.5,0-2.2
		c0-1.2,0.5-1.6,1.6-1.6c2.7,0,5.4,0,8.2,0h8.9c1.3,0,1.8,0.4,1.8,1.8c0,0.7,0,1.5,0,2.2c0,1.2-0.5,1.6-1.6,1.6c-2.7,0-5.4,0-8.1,0
		L-530-805.5L-530-805.5z"/>
	<path id="패스_13" class="st0" d="M-530-796.6c-2.9,0-5.7,0-8.6,0c-1.2,0-1.6-0.4-1.6-1.6c0-0.8,0-1.7,0-2.5
		c-0.1-0.7,0.5-1.4,1.2-1.4c0.1,0,0.2,0,0.3,0c5.9,0,11.7,0,17.6,0c0.7-0.1,1.4,0.4,1.4,1.1c0,0.1,0,0.2,0,0.3c0,0.9,0,1.7,0,2.6
		c0,1-0.5,1.5-1.6,1.5C-524.2-796.6-527.1-796.6-530-796.6L-530-796.6z"/>
</g>
<g id="그룹_9" transform="translate(845 835)">
	<path id="패스_14" class="st1" d="M44.2-1136.3c0-2.2,0-4.4,0-6.6c-0.1-1.8,1.3-3.4,3.1-3.5c0.1,0,0.3,0,0.4,0
		c5.8,0,11.5,0,17.3,0c1.8-0.2,3.4,1.2,3.6,3c0,0.2,0,0.4,0,0.6c0,2.1,0,4.3,0,6.5c0.6,0,1.2,0,1.8,0c1.3-0.1,2.4,0.9,2.5,2.2
		c0,0.1,0,0.2,0,0.3c0,2.6,0,5.2,0,7.8c0.1,1.3-0.9,2.4-2.2,2.5c-0.1,0-0.3,0-0.4,0c-0.4-1.2-0.8-2.4-1.2-3.7
		c-0.1-0.4-0.4-0.6-0.8-0.6c0,0,0,0,0,0c-7.9,0-15.9,0-23.8,0c-0.3-0.1-0.7,0.2-0.7,0.5c0,0,0,0,0,0c-0.4,1.2-0.8,2.5-1.2,3.7
		c-1.2,0.2-2.4-0.6-2.6-1.8c0-0.1,0-0.2,0-0.3c0-2.8,0-5.6,0-8.3c0-1.2,1-2.2,2.3-2.2C42.8-1136.3,43.5-1136.3,44.2-1136.3z
		 M71-1124.7c0.5-0.2,0.8-0.7,0.8-1.3c0-2.6,0-5.1,0-7.7c0-1.2-0.4-1.6-1.6-1.6H48.7c-2.1,0-4.2,0-6.3,0c-0.7-0.1-1.3,0.4-1.4,1.1
		c0,0.1,0,0.1,0,0.2c0,2.7,0,5.4,0,8.1c0,0.5,0.3,1,0.8,1.2l1.4-4.1h26.5L71-1124.7z M48.4-1142.1h16v5.8h3.2c0-2.2,0-4.4,0-6.6
		c0.1-1.2-0.9-2.3-2.1-2.4c-0.1,0-0.2,0-0.2,0c-5.9,0-11.7,0-17.6,0c-1.2-0.1-2.3,0.9-2.4,2.1c0,0.1,0,0.2,0,0.2c0,2.1,0,4.1,0,6.2
		c0,0.2-0.1,0.3,0,0.5h3.1V-1142.1z M63.3-1141.1H49.5v4.7h13.8L63.3-1141.1z"/>
	<path id="패스_15" class="st1" d="M39.7-1113.5l4.5-13.4l1,0.3l-4,12h30.4l-4-12l1-0.3l4.5,13.4H39.7z"/>
	<path id="패스_16" class="st1" d="M44.7-1116.1v-1h23.3v1H44.7z"/>
	<path id="패스_17" class="st1" d="M45.2-1119.3h22.3v1H45.3C45.2-1118.6,45.3-1118.9,45.2-1119.3z"/>
	<path id="패스_18" class="st1" d="M67-1121.4v1H45.8v-1H67z"/>
	<path id="패스_19" class="st1" d="M66.5-1123.5v1H46.3v-1H66.5z"/>
	<path id="패스_20" class="st1" d="M46.8-1124.6v-1h19.1v1H46.8z"/>
	<path id="패스_21" class="st1" d="M68.6-1134.7c0.6,0,1.1,0.5,1.1,1.1c0,0,0,0,0,0c0,0.6-0.5,1.1-1.1,1c0,0,0,0,0,0
		c-0.6,0-1-0.5-1-1.1C67.6-1134.2,68-1134.7,68.6-1134.7C68.6-1134.7,68.6-1134.7,68.6-1134.7z"/>
	<path id="패스_22" class="st1" d="M68.6-1129.9c-0.6,0-1.1-0.4-1.1-1c0,0,0,0,0,0c0-0.6,0.4-1,1-1.1c0.6,0,1.1,0.4,1.1,1
		c0,0,0,0,0,0C69.7-1130.4,69.2-1129.9,68.6-1129.9C68.7-1129.9,68.6-1129.9,68.6-1129.9z"/>
</g>
<path id="패스_24" class="st0" d="M724.3-290.8c0.5-0.5,0.9-0.9,1.4-1.3c3-2.9,5.9-5.9,8.9-8.8c0.7-0.7,1.1-0.7,1.8,0
	c0.4,0.4,0.8,0.8,1.1,1.1c0.6,0.7,0.7,1,0,1.6c-1.7,1.7-3.4,3.4-5.1,5.1c-2.4,2.4-4.7,4.7-7.1,7.1c-0.1,0.1-0.3,0.3-0.5,0.4
	c-0.3,0.2-0.7,0.2-1,0c-0.1-0.1-0.3-0.2-0.4-0.3c-2.1-2.1-4.2-4.2-6.2-6.3c-0.6-0.6-0.6-1,0-1.6c0.4-0.4,0.9-0.9,1.3-1.3
	c0.3-0.4,0.8-0.5,1.2-0.2c0.1,0.1,0.2,0.1,0.2,0.2c1.3,1.3,2.6,2.6,4,4C724-291,724.1-290.9,724.3-290.8z"/>
<g id="그룹_33" transform="translate(19 8)">
	<g id="그룹_31" transform="translate(748 603)">
		<path id="패스_32" class="st0" d="M-679.7-609.3h5.7c0,0.2,0.2,0.2,0.3,0.2c11,1.2,20.1,9.1,22.9,19.8c0.2,1.3,0.5,2.6,0.9,3.8
			v6.2c-0.4,0.4-0.3,0.9-0.4,1.4c-1.9,10.7-10,19.2-20.6,21.6c-1,0.1-2.1,0.3-3,0.6h-6c-0.3-0.4-0.9-0.3-1.3-0.4
			c-11.1-2.3-18.2-8.9-21.5-19.7c-0.2-1.2-0.4-2.4-0.9-3.5v-6.4c0.4-0.4,0.3-0.9,0.4-1.4c2.1-10.3,8.1-17.2,17.9-20.8
			C-683.4-608.6-681.5-608.7-679.7-609.3z M-653.2-582.5c0-13-10.5-23.5-23.4-23.5c-13,0-23.5,10.5-23.6,23.5c0,0,0,0,0,0
			c0,13,10.5,23.5,23.4,23.5C-663.8-559-653.2-569.5-653.2-582.5C-653.2-582.5-653.2-582.5-653.2-582.5L-653.2-582.5z"/>
		<path id="패스_33" class="st0" d="M-673.7-592.4c-0.4,3.8-0.8,7.7-1.2,11.6c-0.1,1-0.9,1.7-1.8,1.6c0,0,0,0,0,0
			c-0.9,0-1.7-0.7-1.8-1.6c-0.4-3.9-0.8-7.8-1.2-11.7c-0.3-1.6,0.8-3.2,2.5-3.4c0.2,0,0.4,0,0.6,0c1.7,0,3,1.4,3,3.1
			C-673.7-592.6-673.7-592.5-673.7-592.4z"/>
		<path id="패스_34" class="st0" d="M-676.7-575.7c1.8-0.1,3.3,1.3,3.3,3.1c0,0.1,0,0.1,0,0.2c0,1.8-1.4,3.3-3.2,3.4
			c0,0,0,0-0.1,0c-1.8,0-3.3-1.4-3.3-3.3c0,0,0,0,0-0.1c-0.1-1.8,1.3-3.3,3.1-3.3C-676.9-575.7-676.8-575.7-676.7-575.7z"/>
	</g>
</g>
</svg>
