<?xml version="1.0" encoding="utf-8"?>
<!-- Generator: Adobe Illustrator 23.1.0, SVG Export Plug-In . SVG Version: 6.00 Build 0)  -->
<svg version="1.1" id="Layer_1" xmlns="http://www.w3.org/2000/svg" xmlns:xlink="http://www.w3.org/1999/xlink" x="0px" y="0px"
	 viewBox="0 0 400 312" style="enable-background:new 0 0 400 312;" xml:space="preserve">
<style type="text/css">
	.st0{fill:#FFFFFF;}
</style>
<g>
	<path class="st0" d="M381.9,134.8c0,36,0,72.1,0,108.1c0,11.5-4.7,18.1-15.5,21.9c-30.7,10.7-61.4,21.4-92.1,32.1
		c-10.1,3.5-20.2,3.5-30.4-0.1c-34.9-12.3-69.8-24.5-104.7-36.9c-2.2-0.8-3.9-0.7-6,0.1c-34.8,12.8-69.7,25.6-104.5,38.4
		c-7.1,2.6-12.3,0.5-14.7-5.7c-0.6-1.5-0.6-2.9-0.6-4.4c0-73.2,0-146.4,0-219.6c0-10.1,5-17,14.6-20.3
		c31.2-10.9,62.4-21.8,93.6-32.6c9.8-3.4,19.5-3.3,29.3,0.2c34.7,12.3,69.6,24.5,104.3,36.8c2.8,1,5.1,1,7.9-0.1
		c34.5-12.8,69.1-25.6,103.7-38.3c8.8-3.2,15.3,1.2,15.3,10.6C381.9,61.5,381.9,98.1,381.9,134.8L381.9,134.8z M238.6,79.4
		c-27.4-9.7-54.5-19.3-81.9-28.9c-0.1,1-0.1,1.5-0.1,2c0,59.3,0,118.7-0.1,178c0,2.7,1.3,3.3,3.3,4c25.1,8.8,50.2,17.7,75.3,26.5
		c1.1,0.4,2.2,1.2,3.5,0.7C238.6,201.1,238.6,140.4,238.6,79.4z M125.9,46.8c-1.1,0.3-1.7,0.5-2.3,0.7C98,56.4,72.5,65.2,47,73.9
		c-2.8,1-3,2.6-3,5c0,58.9,0,117.7,0.1,176.6c0,1.3-0.4,2.7,0.4,3.9c1.1,0.2,2-0.3,2.9-0.6c25-9.2,50-18.5,75.1-27.6
		c2.8-1,3.5-2.3,3.5-5.1c-0.1-43-0.1-86-0.1-129.1C125.9,80.5,125.9,63.9,125.9,46.8z M269.4,266.1c27.7-9.7,54.8-19.2,81.6-28.6
		c0-61.6,0-122.6,0-183.9c-4.3,0.3-7.9,2.2-11.6,3.6c-22.3,8-44.4,16.4-66.7,24.4c-2.7,1-3.5,2.3-3.4,5.1
		c0.1,56.6,0.1,113.2,0.1,169.8C269.4,259.4,269.4,262.4,269.4,266.1z"/>
</g>
</svg>
