<?xml version="1.0" encoding="utf-8"?>
<!-- Generator: Adobe Illustrator 23.1.0, SVG Export Plug-In . SVG Version: 6.00 Build 0)  -->
<svg version="1.1" id="Layer_1" xmlns="http://www.w3.org/2000/svg" xmlns:xlink="http://www.w3.org/1999/xlink" x="0px" y="0px"
	 viewBox="0 0 417 343" style="enable-background:new 0 0 417 343;" xml:space="preserve">
<style type="text/css">
	.st0{fill:#82C81F;}
	.st1{fill:#FCFCFC;}
</style>
<g>
	<path class="st0" d="M-271.1,4.8c0,36,0,72.1,0,108.1c0,11.5-4.7,18.1-15.5,21.9c-30.7,10.7-61.4,21.4-92.1,32.1
		c-10.1,3.5-20.2,3.5-30.4-0.1c-34.9-12.3-69.8-24.5-104.7-36.9c-2.2-0.8-3.9-0.7-6,0.1c-34.8,12.8-69.7,25.6-104.5,38.4
		c-7.1,2.6-12.3,0.5-14.7-5.7c-0.6-1.5-0.6-2.9-0.6-4.4c0-73.2,0-146.4,0-219.6c0-10.1,5-17,14.6-20.3
		c31.2-10.9,62.4-21.8,93.6-32.6c9.8-3.4,19.5-3.3,29.3,0.2c34.7,12.3,69.6,24.5,104.3,36.8c2.8,1,5.1,1,7.9-0.1
		c34.5-12.8,69.1-25.6,103.7-38.3c8.8-3.2,15.3,1.2,15.3,10.6C-271.1-68.5-271.1-31.9-271.1,4.8L-271.1,4.8z M-414.4-50.6
		c-27.4-9.7-54.5-19.3-81.9-28.9c-0.1,1-0.1,1.5-0.1,2c0,59.3,0,118.7-0.1,178c0,2.7,1.3,3.3,3.3,4c25.1,8.8,50.2,17.7,75.3,26.5
		c1.1,0.4,2.2,1.2,3.5,0.7C-414.4,71.1-414.4,10.4-414.4-50.6z M-527.1-83.2c-1.1,0.3-1.7,0.5-2.3,0.7c-25.5,8.8-51,17.7-76.6,26.4
		c-2.8,1-3,2.6-3,5c0,58.9,0,117.7,0.1,176.6c0,1.3-0.4,2.7,0.4,3.9c1.1,0.2,2-0.3,2.9-0.6c25-9.2,50-18.5,75.1-27.6
		c2.8-1,3.5-2.3,3.5-5.1c-0.1-43-0.1-86-0.1-129.1C-527.1-49.5-527.1-66.1-527.1-83.2z M-383.6,136.1c27.7-9.7,54.8-19.2,81.6-28.6
		c0-61.6,0-122.6,0-183.9c-4.3,0.3-7.9,2.2-11.6,3.6c-22.3,8-44.4,16.4-66.7,24.4c-2.7,1-3.5,2.3-3.4,5.1
		c0.1,56.6,0.1,113.2,0.1,169.8C-383.6,129.4-383.6,132.4-383.6,136.1z"/>
</g>
<g>
	<path class="st1" d="M167.3,231.1c0,3.4,0,7,0,10.6c0,10.2,0.2,20.5-0.1,30.7c-0.6,21.9-18.1,39.7-40,40.1
		c-21.2,0.4-37.9-14.8-40.9-33.9c-1.6-10-0.7-20.2-0.7-30.2c-0.1-69.5-0.1-138.9,0-208.4c0-11.8-2.3-22.7-9.1-32.5
		c-0.3-0.4-0.3-0.9-0.5-1.3c1.4-0.9,2.8-0.5,4.1-0.5c69.5,0,139,0,208.5,0c30.8,0,54.7,18.6,61.7,48.1c1.2,4.9,1.4,9.8,1.4,14.8
		c0,52.5,0,105,0.1,157.5c0,4-1.3,4.6-4.9,4.6c-58.3-0.1-116.5-0.1-174.8-0.1C170.6,230.6,169.1,230.3,167.3,231.1z"/>
	<path class="st1" d="M135.6,333c13.5-3,25.3-8.7,34.8-18.7c11.6-12.1,17.3-26.6,17.6-43.2c0.1-6.5,0-12.9,0-19.2
		c1.6-1.1,3-0.7,4.3-0.7c69.5,0,138.9,0,208.4,0c9.1,0,12.3,3.5,12.2,12.5c-0.4,34.1-27.5,64.4-61.8,68.6c-3.5,0.4-6.9,0.6-10.4,0.6
		c-67.5,0-134.9,0-202.4,0.1C137.4,333,136.5,333,135.6,333z"/>
	<path class="st1" d="M64.6,86.9c-1.1,0.8-2.3,0.5-3.4,0.5c-15.2,0-30.4,0-45.6,0c-7.8,0-12-3.9-12.1-11.6c0-14.1-0.4-28.1,0.3-42.2
		C4.5,19.1,17.9,5.2,35,5.5C50.4,5.9,64.6,19,64.7,34.7c0.1,16.9,0.1,33.9,0.1,50.8C64.8,86,64.6,86.5,64.6,86.9z"/>
</g>
</svg>
