<?xml version="1.0" encoding="utf-8"?>
<!-- Generator: Adobe Illustrator 23.1.0, SVG Export Plug-In . SVG Version: 6.00 Build 0)  -->
<svg version="1.1" id="Layer_1" xmlns="http://www.w3.org/2000/svg" xmlns:xlink="http://www.w3.org/1999/xlink" x="0px" y="0px"
	 viewBox="0 0 42.1 41.7" style="enable-background:new 0 0 42.1 41.7;" xml:space="preserve">
<style type="text/css">
	.st0{fill:#FFFFFF;}
	.st1{fill:#FFFFFF;stroke:#FFFFFF;}
</style>
<g id="그룹_68" transform="translate(-0.324)">
	<path id="패스_6" class="st0" d="M1071.9-314.7c0.5,0.1,1,0.2,1.5,0.3c0.9,0.3,2,0.3,2.9,0c0.4-0.1,0.8-0.2,1.2-0.3
		c1.1-0.2,2.2,0.3,2.9,1.1c0.8,1,2,1.7,3.2,1.9c1.4,0.2,2.5,1.4,2.7,2.8c0.2,1.2,0.8,2.3,1.8,3.1c1.1,0.9,1.5,2.4,1.1,3.7
		c-0.4,1.3-0.4,2.7,0,4c0.4,1.3,0.1,2.7-1,3.6c-1,0.8-1.6,2-1.8,3.2c-0.2,1.5-1.4,2.6-2.8,2.8c-1.1,0.2-2,0.8-2.8,1.5
		c-1.1,1.1-2.9,1.3-4.2,0.5c-0.8-0.5-1.9-0.6-2.8-0.3c-0.1,0-0.2,0.1-0.4,0.1c-1.5,1.1-3.5,0.8-4.7-0.6c-0.7-0.7-1.5-1.1-2.5-1.2
		c-1.2-0.2-2.2-1.1-2.6-2.2c-0.2-0.5-0.3-1-0.4-1.5c-0.2-0.7-0.5-1.2-1-1.7c-0.5-0.4-0.9-0.9-1.3-1.5c-0.5-0.8-0.6-1.8-0.3-2.7
		c0.2-0.8,0.3-1.6,0.3-2.4c-0.1-0.6-0.2-1.2-0.4-1.8c-0.3-1.2,0.1-2.6,1-3.4c0.1-0.1,0.2-0.3,0.4-0.4c0.8-0.7,1.3-1.6,1.5-2.6
		c0.1-0.6,0.4-1.2,0.7-1.7c0.4-0.7,1.1-1.2,1.9-1.3c1.4-0.2,2.6-1,3.5-2c0.4-0.5,1.1-0.9,1.8-1
		C1071.4-314.6,1071.6-314.6,1071.9-314.7L1071.9-314.7z M1074.8-308.1c-4.3,0-7.7,3.5-7.7,7.7c0,0,0,0.1,0,0.1
		c-0.1,4.3,3.2,7.8,7.5,7.9c0,0,0.1,0,0.1,0c4.3,0.1,7.8-3.2,7.9-7.5c0-0.1,0-0.2,0-0.4c0.1-4.3-3.3-7.8-7.6-7.9
		C1074.9-308.1,1074.9-308.1,1074.8-308.1L1074.8-308.1z"/>
	<path id="패스_7" class="st0" d="M1074-283.7c-0.4,1-0.8,2-1.2,2.9c-0.9,2.3-1.9,4.7-2.8,7c-0.4,0.9-0.8,1.3-1.4,1.2
		c-0.4-0.1-0.7-0.2-1-0.5c-0.9-0.9-1.7-1.8-2.6-2.7c-0.2-0.3-0.6-0.4-0.9-0.4c-1.2,0.1-2.4,0.1-3.6,0.2c-0.7,0.1-1.4-0.4-1.5-1.1
		c0-0.3,0-0.6,0.2-0.9c1.2-2.9,2.4-5.8,3.5-8.7c0-0.1,0.1-0.1,0.1-0.2c0.7,0.3,1.3,0.6,1.9,0.9c0.3,0.1,0.7,0.2,1,0.3
		c0.5,0.1,0.9,0.4,1.3,0.7c1.7,1.8,4.3,2.2,6.6,1.2C1073.7-283.7,1073.9-283.7,1074-283.7L1074-283.7z"/>
	<path id="패스_8" class="st0" d="M1075.6-283.7c0.4,0.1,0.7,0.3,1.1,0.4c2,0.6,4.2,0.1,5.7-1.3c0.5-0.5,1.2-0.8,1.8-1
		c0.8-0.3,1.5-0.6,2.2-1c0.1,0,0.2-0.1,0.3-0.2c0.2,0.5,0.4,1,0.6,1.5c1,2.4,2,4.8,3,7.2c0.4,0.9,0.3,1.7-0.4,2
		c-0.5,0.2-1,0.2-1.5,0.2c-1.1,0-2.2-0.1-3.3-0.1c-0.2,0-0.4,0.1-0.5,0.3c-0.9,0.9-1.7,1.8-2.5,2.6c-0.4,0.7-1.3,0.8-2,0.4
		c-0.3-0.2-0.5-0.5-0.6-0.9c-1.2-3-2.4-6-3.6-9C1075.8-283.1,1075.7-283.4,1075.6-283.7L1075.6-283.7z"/>
</g>
<g id="그룹_8" transform="translate(551 837)">
	<path id="패스_11" class="st0" d="M-498.3-867.1c0-7.3,0-14.6,0-21.9c-0.2-2.4,1.5-4.6,3.9-5.2c0.5-0.1,1.1-0.2,1.6-0.2
		c7,0,14,0,21.1,0c1.6,0,3.1,0.6,4.2,1.8c2.7,2.8,5.5,5.5,8.3,8.3c1.3,1.2,1.9,2.8,1.9,4.6c0,11.5,0,22.9,0,34.4
		c0.2,2.1-1,4.1-2.9,5c-0.8,0.3-1.7,0.5-2.5,0.5c-10,0-20,0-30,0c-2.9,0.1-5.4-2.2-5.5-5.1c0-0.1,0-0.2,0-0.4
		C-498.3-852.6-498.3-859.8-498.3-867.1L-498.3-867.1z M-493.2-889.2v44.3h30.6v-30.6h-0.7c-3.3,0-6.6,0-10,0
		c-1.4,0.2-2.7-0.9-2.9-2.3c0-0.2,0-0.4,0-0.6c0-3.4,0-6.7,0-10.1c0-0.2,0-0.4,0-0.7L-493.2-889.2z M-463.1-880.7l-7.9-7.9v7.9
		H-463.1z"/>
	<path id="패스_12" class="st0" d="M-477.9-863.7c-2.8,0-5.7,0-8.5,0c-1.2,0-1.7-0.5-1.7-1.7c0-0.7,0-1.5,0-2.2
		c0-1.2,0.5-1.6,1.6-1.6c2.7,0,5.4,0,8.2,0h8.9c1.3,0,1.8,0.4,1.8,1.8c0,0.7,0,1.5,0,2.2c0,1.2-0.5,1.6-1.6,1.6c-2.7,0-5.4,0-8.1,0
		L-477.9-863.7L-477.9-863.7z"/>
	<path id="패스_13" class="st0" d="M-477.9-854.8c-2.9,0-5.7,0-8.6,0c-1.2,0-1.6-0.4-1.6-1.6c0-0.8,0-1.7,0-2.5
		c-0.1-0.7,0.5-1.4,1.2-1.4c0.1,0,0.2,0,0.3,0c5.9,0,11.7,0,17.6,0c0.7-0.1,1.4,0.4,1.4,1.1c0,0.1,0,0.2,0,0.3c0,0.9,0,1.7,0,2.6
		c0,1-0.5,1.5-1.6,1.5C-472.1-854.8-475-854.8-477.9-854.8L-477.9-854.8z"/>
</g>
<g id="그룹_9" transform="translate(845 835)">
	<path id="패스_14" class="st1" d="M-838.4-821.9c0-2.7,0-5.4,0-8c-0.1-2.2,1.5-4.1,3.8-4.3c0.2,0,0.3,0,0.5,0c7,0,14,0,21.1,0
		c2.2-0.2,4.2,1.5,4.4,3.7c0,0.2,0,0.5,0,0.7c0,2.6,0,5.2,0,7.9c0.7,0,1.5,0,2.2,0c1.6-0.1,2.9,1.1,3,2.6c0,0.1,0,0.2,0,0.4
		c0,3.2,0,6.3,0,9.5c0.1,1.6-1.1,2.9-2.6,3c-0.2,0-0.4,0-0.5,0c-0.5-1.5-1-3-1.5-4.5c-0.1-0.4-0.5-0.7-0.9-0.7c0,0,0,0,0,0
		c-9.6,0-19.3,0-29,0c-0.4-0.1-0.8,0.2-0.9,0.6c0,0,0,0,0,0c-0.5,1.5-1,3-1.5,4.5c-1.5,0.2-2.9-0.8-3.1-2.2c0-0.1,0-0.2,0-0.4
		c0-3.4,0-6.8,0-10.1c0-1.5,1.3-2.7,2.8-2.7C-840.1-821.9-839.3-821.9-838.4-821.9z M-805.8-807.8c0.6-0.3,1-0.9,1-1.6
		c0-3.1,0-6.2,0-9.3c0-1.4-0.5-1.9-1.9-1.9h-26.2c-2.6,0-5.1,0-7.7,0c-0.8-0.1-1.6,0.5-1.7,1.3c0,0.1,0,0.1,0,0.2c0,3.3,0,6.6,0,9.8
		c0,0.6,0.4,1.2,1,1.4l1.7-5h32.2L-805.8-807.8z M-833.3-829h19.4v7h3.9c0-2.7,0-5.4,0-8.1c0.1-1.5-1.1-2.8-2.6-2.9
		c-0.1,0-0.2,0-0.3,0c-7.1,0-14.3,0-21.4,0c-1.5-0.1-2.8,1.1-2.9,2.6c0,0.1,0,0.2,0,0.3c0,2.5,0,5,0,7.5c0,0.2-0.1,0.4,0.1,0.6h3.8
		V-829z M-815.2-827.7h-16.8v5.7h16.8L-815.2-827.7z"/>
	<path id="패스_15" class="st1" d="M-843.9-794.1l5.4-16.3l1.2,0.4l-4.9,14.6h37l-4.9-14.6l1.2-0.4l5.5,16.4H-843.9z"/>
	<path id="패스_16" class="st1" d="M-837.8-797.3v-1.2h28.4v1.2H-837.8z"/>
	<path id="패스_17" class="st1" d="M-837.2-801.2h27.1v1.2h-27.1C-837.2-800.3-837.1-800.7-837.2-801.2z"/>
	<path id="패스_18" class="st1" d="M-810.7-803.7v1.2h-25.8v-1.2H-810.7z"/>
	<path id="패스_19" class="st1" d="M-811.3-806.3v1.2h-24.5v-1.2H-811.3z"/>
	<path id="패스_20" class="st1" d="M-835.2-807.7v-1.2h23.2v1.2H-835.2z"/>
	<path id="패스_21" class="st1" d="M-808.7-819.9c0.7,0,1.3,0.6,1.3,1.3c0,0,0,0,0,0c0,0.7-0.6,1.3-1.3,1.3c0,0,0,0,0,0
		c-0.7,0-1.2-0.6-1.3-1.3C-810-819.3-809.4-819.9-808.7-819.9C-808.7-819.9-808.7-819.9-808.7-819.9z"/>
	<path id="패스_22" class="st1" d="M-808.7-814.1c-0.7,0-1.3-0.5-1.3-1.3c0,0,0,0,0,0c0-0.7,0.5-1.3,1.2-1.3
		c0.7,0,1.3,0.5,1.4,1.2c0,0,0,0,0,0C-807.4-814.7-807.9-814.1-808.7-814.1C-808.7-814.1-808.7-814.1-808.7-814.1z"/>
</g>
<path id="패스_24" class="st0" d="M22.9-55.7c0.9-0.9,1.8-1.7,2.6-2.6C31.3-64,37-69.7,42.8-75.4c1.4-1.4,2.1-1.4,3.5,0
	c0.7,0.7,1.5,1.5,2.2,2.2c1.3,1.3,1.3,2,0,3.2c-3.3,3.3-6.6,6.6-10,9.9c-4.6,4.6-9.2,9.2-13.8,13.8c-0.3,0.3-0.6,0.5-0.9,0.8
	c-0.5,0.5-1.3,0.4-1.9,0c-0.3-0.2-0.5-0.4-0.8-0.7c-4-4.1-8.1-8.2-12.1-12.3c-1.2-1.2-1.2-1.9,0-3.1c0.9-0.9,1.7-1.7,2.6-2.6
	c0.5-0.8,1.6-1,2.4-0.5c0.2,0.1,0.3,0.3,0.5,0.5c2.6,2.6,5.1,5.1,7.7,7.7C22.3-56.2,22.6-56,22.9-55.7z"/>
<g id="그룹_33" transform="translate(19 8)">
	<g id="그룹_31" transform="translate(748 603)">
		<path id="패스_32" class="st0" d="M-679.7-610.4h5.7c0,0.2,0.2,0.2,0.3,0.2c11,1.2,20.1,9.1,22.9,19.8c0.2,1.3,0.5,2.6,0.9,3.8
			v6.2c-0.4,0.4-0.3,0.9-0.4,1.4c-1.9,10.7-10,19.2-20.6,21.6c-1,0.1-2.1,0.3-3,0.6h-6c-0.3-0.4-0.9-0.3-1.3-0.4
			c-11.1-2.3-18.2-8.9-21.5-19.7c-0.2-1.2-0.4-2.4-0.9-3.5v-6.4c0.4-0.4,0.3-0.9,0.4-1.4c2.1-10.3,8.1-17.2,17.9-20.8
			C-683.4-609.6-681.5-609.7-679.7-610.4z M-653.2-583.5c0-13-10.5-23.5-23.4-23.5c-13,0-23.5,10.5-23.6,23.5c0,0,0,0,0,0
			c0,13,10.5,23.5,23.4,23.5C-663.8-560-653.2-570.5-653.2-583.5C-653.2-583.5-653.2-583.5-653.2-583.5L-653.2-583.5z"/>
		<path id="패스_33" class="st0" d="M-673.7-593.4c-0.4,3.8-0.8,7.7-1.2,11.6c-0.1,1-0.9,1.7-1.8,1.6c0,0,0,0,0,0
			c-0.9,0-1.7-0.7-1.8-1.6c-0.4-3.9-0.8-7.8-1.2-11.7c-0.3-1.6,0.8-3.2,2.5-3.4c0.2,0,0.4,0,0.6,0c1.7,0,3,1.4,3,3.1
			C-673.7-593.7-673.7-593.5-673.7-593.4z"/>
		<path id="패스_34" class="st0" d="M-676.7-576.7c1.8-0.1,3.3,1.3,3.3,3.1c0,0.1,0,0.1,0,0.2c0,1.8-1.4,3.3-3.2,3.4
			c0,0,0,0-0.1,0c-1.8,0-3.3-1.4-3.3-3.3c0,0,0,0,0-0.1c-0.1-1.8,1.3-3.3,3.1-3.3C-676.9-576.7-676.8-576.7-676.7-576.7z"/>
	</g>
</g>
</svg>
